<svg width="16" height="8" viewBox="0 0 16 8" fill="none" xmlns="http://www.w3.org/2000/svg">
<path d="M0.5 3.18201C0.223858 3.18201 -2.41411e-08 3.40586 0 3.68201C2.41411e-08 3.95815 0.223858 4.18201 0.5 4.18201L0.5 3.68201L0.5 3.18201ZM15.8536 4.03556C16.0488 3.8403 16.0488 3.52371 15.8536 3.32845L12.6716 0.146472C12.4763 -0.0487903 12.1597 -0.0487903 11.9645 0.146472C11.7692 0.341734 11.7692 0.658317 11.9645 0.853579L14.7929 3.68201L11.9645 6.51043C11.7692 6.7057 11.7692 7.02228 11.9645 7.21754C12.1597 7.4128 12.4763 7.4128 12.6716 7.21754L15.8536 4.03556ZM0.5 3.68201L0.5 4.18201L15.5 4.18201L15.5 3.68201L15.5 3.18201L0.5 3.18201L0.5 3.68201Z" fill="#8473E8"/>
</svg>
